999
dxfrw 0.5.10
0
SECTION
2
HEADER
9
$ACADVER
1
AC1021
9
$HANDSEED
5
20000
9
$DWGCODEPAGE
3
ANSI_1252
9
$INSBASE
10
0
20
0
30
0
9
$EXTMIN
10
-30.625
20
-31.6651386311
30
0
9
$EXTMAX
10
1000
20
995
30
0
9
$LIMMIN
10
0
20
0
9
$LIMMAX
10
420
20
297
9
$ORTHOMODE
70
0
9
$LTSCALE
40
1
9
$TEXTSTYLE
7
STANDARD
9
$CLAYER
8
finished_piece
9
$DIMASZ
40
10
9
$DIMLFAC
40
1
9
$DIMSCALE
40
1
9
$DIMEXO
40
0.625
9
$DIMEXE
40
1.25
9
$DIMTXT
40
10
9
$DIMTSZ
40
0
9
$DIMAUNIT
70
0
9
$DIMADEC
70
2
9
$DIMLUNIT
70
2
9
$DIMSTYLE
2
STANDARD
9
$DIMGAP
40
0.625
9
$DIMTIH
70
0
9
$LUNITS
70
2
9
$LUPREC
70
4
9
$AUNITS
70
0
9
$AUPREC
70
2
9
$SPLINESEGS
70
8
9
$GRIDMODE
70
1
9
$SNAPSTYLE
70
0
9
$GRIDUNIT
10
0
20
0
9
$PINSBASE
10
0
20
0
30
0
9
$PLIMMIN
10
0
20
0
9
$PLIMMAX
10
210
20
297
9
$INSUNITS
70
4
9
$PSVPSCALE
40
1
0
ENDSEC
0
SECTION
2
CLASSES
0
ENDSEC
0
SECTION
2
TABLES
0
TABLE
2
VPORT
5
8
330
0
100
AcDbSymbolTable
70
1
0
VPORT
5
31
330
2
100
AcDbSymbolTableRecord
100
AcDbViewportTableRecord
2
*ACTIVE
70
0
10
0
20
0
11
1
21
1
12
816.583633423
22
489.354133606
13
0
23
0
14
10
24
10
15
10
25
10
16
0
26
0
36
1
17
0
27
0
37
0
40
941.753387451
41
1.90886075949
42
50
43
0
44
0
50
0
51
0
71
0
72
100
73
1
74
3
75
0
76
1
77
0
78
0
281
0
65
1
110
0
120
0
130
0
111
1
121
0
131
0
112
0
122
1
132
0
79
0
146
0
348
10020
60
7
61
5
292
1
282
1
141
0
142
0
63
250
421
3358443
0
ENDTAB
0
TABLE
2
LTYPE
5
5
330
0
100
AcDbSymbolTable
70
4
0
LTYPE
5
14
330
5
100
AcDbSymbolTableRecord
100
AcDbLinetypeTableRecord
2
ByBlock
70
0
3

72
65
73
0
40
0
0
LTYPE
5
15
330
5
100
AcDbSymbolTableRecord
100
AcDbLinetypeTableRecord
2
ByLayer
70
0
3

72
65
73
0
40
0
0
LTYPE
5
16
330
5
100
AcDbSymbolTableRecord
100
AcDbLinetypeTableRecord
2
Continuous
70
0
3
Solid line
72
65
73
0
40
0
0
LTYPE
5
32
330
5
100
AcDbSymbolTableRecord
100
AcDbLinetypeTableRecord
2
DOT
70
0
3
Dot . . . . . . . . . . . . . . . . . . . . . .
72
65
73
2
40
6.35
49
0
74
0
49
-6.35
74
0
0
LTYPE
5
33
330
5
100
AcDbSymbolTableRecord
100
AcDbLinetypeTableRecord
2
DOT2
70
0
3
Dot (.5x) .....................................
72
65
73
2
40
3.175
49
0
74
0
49
-3.175
74
0
0
LTYPE
5
34
330
5
100
AcDbSymbolTableRecord
100
AcDbLinetypeTableRecord
2
DOTX2
70
0
3
Dot (2x) .  .  .  .  .  .  .  .  .  .  .  .  .
72
65
73
2
40
12.7
49
0
74
0
49
-12.7
74
0
0
LTYPE
5
35
330
5
100
AcDbSymbolTableRecord
100
AcDbLinetypeTableRecord
2
DASHED
70
0
3
Dot . . . . . . . . . . . . . . . . . . . . . .
72
65
73
2
40
19.05
49
12.7
74
0
49
-6.35
74
0
0
LTYPE
5
36
330
5
100
AcDbSymbolTableRecord
100
AcDbLinetypeTableRecord
2
DASHED2
70
0
3
Dashed (.5x) _ _ _ _ _ _ _ _ _ _ _ _ _ _ _ _ _
72
65
73
2
40
9.525
49
6.35
74
0
49
-3.175
74
0
0
LTYPE
5
37
330
5
100
AcDbSymbolTableRecord
100
AcDbLinetypeTableRecord
2
DASHEDX2
70
0
3
Dashed (2x) ____  ____  ____  ____  ____  ___
72
65
73
2
40
38.1
49
25.4
74
0
49
-12.7
74
0
0
LTYPE
5
38
330
5
100
AcDbSymbolTableRecord
100
AcDbLinetypeTableRecord
2
DASHDOT
70
0
3
Dash dot __ . __ . __ . __ . __ . __ . __ . __
72
65
73
4
40
25.4
49
12.7
74
0
49
-6.35
74
0
49
0
74
0
49
-6.35
74
0
0
LTYPE
5
39
330
5
100
AcDbSymbolTableRecord
100
AcDbLinetypeTableRecord
2
DASHDOT2
70
0
3
Dash dot (.5x) _._._._._._._._._._._._._._._.
72
65
73
4
40
12.7
49
6.35
74
0
49
-3.175
74
0
49
0
74
0
49
-3.175
74
0
0
LTYPE
5
3A
330
5
100
AcDbSymbolTableRecord
100
AcDbLinetypeTableRecord
2
DASHDOTX2
70
0
3
Dash dot (2x) ____  .  ____  .  ____  .  ___
72
65
73
4
40
50.8
49
25.4
74
0
49
-12.7
74
0
49
0
74
0
49
-12.7
74
0
0
LTYPE
5
3B
330
5
100
AcDbSymbolTableRecord
100
AcDbLinetypeTableRecord
2
DIVIDE
70
0
3
Divide ____ . . ____ . . ____ . . ____ . . ____
72
65
73
6
40
31.75
49
12.7
74
0
49
-6.35
74
0
49
0
74
0
49
-6.35
74
0
49
0
74
0
49
-6.35
74
0
0
LTYPE
5
3C
330
5
100
AcDbSymbolTableRecord
100
AcDbLinetypeTableRecord
2
DIVIDE2
70
0
3
Divide (.5x) __..__..__..__..__..__..__..__.._
72
65
73
6
40
15.875
49
6.35
74
0
49
-3.175
74
0
49
0
74
0
49
-3.175
74
0
49
0
74
0
49
-3.175
74
0
0
LTYPE
5
3D
330
5
100
AcDbSymbolTableRecord
100
AcDbLinetypeTableRecord
2
DIVIDEX2
70
0
3
Divide (2x) ________  .  .  ________  .  .  _
72
65
73
6
40
63.5
49
25.4
74
0
49
-12.7
74
0
49
0
74
0
49
-12.7
74
0
49
0
74
0
49
-12.7
74
0
0
LTYPE
5
3E
330
5
100
AcDbSymbolTableRecord
100
AcDbLinetypeTableRecord
2
BORDER
70
0
3
Border __ __ . __ __ . __ __ . __ __ . __ __ .
72
65
73
6
40
44.45
49
12.7
74
0
49
-6.35
74
0
49
12.7
74
0
49
-6.35
74
0
49
0
74
0
49
-6.35
74
0
0
LTYPE
5
3F
330
5
100
AcDbSymbolTableRecord
100
AcDbLinetypeTableRecord
2
BORDER2
70
0
3
Border (.5x) __.__.__.__.__.__.__.__.__.__.__.
72
65
73
6
40
22.225
49
6.35
74
0
49
-3.175
74
0
49
6.35
74
0
49
-3.175
74
0
49
0
74
0
49
-3.175
74
0
0
LTYPE
5
40
330
5
100
AcDbSymbolTableRecord
100
AcDbLinetypeTableRecord
2
BORDERX2
70
0
3
Border (2x) ____  ____  .  ____  ____  .  ___
72
65
73
6
40
88.9
49
25.4
74
0
49
-12.7
74
0
49
25.4
74
0
49
-12.7
74
0
49
0
74
0
49
-12.7
74
0
0
LTYPE
5
41
330
5
100
AcDbSymbolTableRecord
100
AcDbLinetypeTableRecord
2
CENTER
70
0
3
Center ____ _ ____ _ ____ _ ____ _ ____ _ ____
72
65
73
4
40
50.8
49
31.75
74
0
49
-6.35
74
0
49
6.35
74
0
49
-6.35
74
0
0
LTYPE
5
42
330
5
100
AcDbSymbolTableRecord
100
AcDbLinetypeTableRecord
2
CENTER2
70
0
3
Center (.5x) ___ _ ___ _ ___ _ ___ _ ___ _ ___
72
65
73
4
40
28.575
49
19.05
74
0
49
-3.175
74
0
49
3.175
74
0
49
-3.175
74
0
0
LTYPE
5
43
330
5
100
AcDbSymbolTableRecord
100
AcDbLinetypeTableRecord
2
CENTERX2
70
0
3
Center (2x) ________  __  ________  __  _____
72
65
73
4
40
101.6
49
63.5
74
0
49
-12.7
74
0
49
12.7
74
0
49
-12.7
74
0
0
ENDTAB
0
TABLE
2
LAYER
5
2
330
0
100
AcDbSymbolTable
70
1
0
LAYER
5
10
330
2
100
AcDbSymbolTableRecord
100
AcDbLayerTableRecord
2
0
70
0
62
7
6
CONTINUOUS
370
0
390
F
0
LAYER
5
44
330
2
100
AcDbSymbolTableRecord
100
AcDbLayerTableRecord
2
dimensions
70
0
62
1
6
CONTINUOUS
370
0
390
F
0
LAYER
5
45
330
2
100
AcDbSymbolTableRecord
100
AcDbLayerTableRecord
2
finished_piece
70
0
62
136
420
32896
6
CONTINUOUS
370
0
390
F
0
ENDTAB
0
TABLE
2
STYLE
5
3
330
0
100
AcDbSymbolTable
70
3
0
STYLE
5
46
330
2
100
AcDbSymbolTableRecord
100
AcDbTextStyleTableRecord
2
Standard
70
0
40
0
41
1
50
0
71
0
42
1
3
txt
4

0
ENDTAB
0
TABLE
2
VIEW
5
6
330
0
100
AcDbSymbolTable
70
0
0
ENDTAB
0
TABLE
2
UCS
5
7
330
0
100
AcDbSymbolTable
70
0
0
ENDTAB
0
TABLE
2
APPID
5
9
330
0
100
AcDbSymbolTable
70
1
0
APPID
5
12
330
9
100
AcDbSymbolTableRecord
100
AcDbRegAppTableRecord
2
ACAD
70
0
0
ENDTAB
0
TABLE
2
DIMSTYLE
5
A
330
0
100
AcDbSymbolTable
70
1
100
AcDbDimStyleTable
71
1
0
DIMSTYLE
105
47
330
A
100
AcDbSymbolTableRecord
100
AcDbDimStyleTableRecord
2
Standard
70
0
40
1
41
10
42
0.625
43
0.38
44
1.25
45
0
46
0
47
0
48
0
140
10
141
0.09
142
0
143
25.4
144
1
145
0
146
1
147
0.625
148
0
71
0
72
0
73
0
74
1
75
0
76
0
77
0
78
0
79
0
170
0
171
2
172
0
173
0
174
0
175
0
176
0
177
0
178
0
179
0
271
4
272
4
273
2
274
2
275
0
276
0
277
2
278
46
279
0
280
0
281
0
282
0
283
1
284
0
285
0
286
0
288
0
289
3
340
Standard
341

371
-2
372
-2
0
ENDTAB
0
TABLE
2
BLOCK_RECORD
5
1
330
0
100
AcDbSymbolTable
70
2
0
BLOCK_RECORD
5
1F
330
1
100
AcDbSymbolTableRecord
100
AcDbBlockTableRecord
2
*Model_Space
70
0
280
1
281
0
0
BLOCK_RECORD
5
1E
330
1
100
AcDbSymbolTableRecord
100
AcDbBlockTableRecord
2
*Paper_Space
70
0
280
1
281
0
0
BLOCK_RECORD
5
48
330
1
100
AcDbSymbolTableRecord
100
AcDbBlockTableRecord
2
*D3
70
0
280
1
281
0
0
BLOCK_RECORD
5
4B
330
1
100
AcDbSymbolTableRecord
100
AcDbBlockTableRecord
2
*D10
70
0
280
1
281
0
0
BLOCK_RECORD
5
4E
330
1
100
AcDbSymbolTableRecord
100
AcDbBlockTableRecord
2
*D4
70
0
280
1
281
0
0
BLOCK_RECORD
5
51
330
1
100
AcDbSymbolTableRecord
100
AcDbBlockTableRecord
2
*D5
70
0
280
1
281
0
0
BLOCK_RECORD
5
54
330
1
100
AcDbSymbolTableRecord
100
AcDbBlockTableRecord
2
*D9
70
0
280
1
281
0
0
BLOCK_RECORD
5
57
330
1
100
AcDbSymbolTableRecord
100
AcDbBlockTableRecord
2
*D2
70
0
280
1
281
0
0
BLOCK_RECORD
5
5A
330
1
100
AcDbSymbolTableRecord
100
AcDbBlockTableRecord
2
*D7
70
0
280
1
281
0
0
BLOCK_RECORD
5
5D
330
1
100
AcDbSymbolTableRecord
100
AcDbBlockTableRecord
2
*D1
70
0
280
1
281
0
0
BLOCK_RECORD
5
60
330
1
100
AcDbSymbolTableRecord
100
AcDbBlockTableRecord
2
*D8
70
0
280
1
281
0
0
BLOCK_RECORD
5
63
330
1
100
AcDbSymbolTableRecord
100
AcDbBlockTableRecord
2
*D6
70
0
280
1
281
0
0
BLOCK_RECORD
5
66
330
1
100
AcDbSymbolTableRecord
100
AcDbBlockTableRecord
2
front_plate
70
0
280
1
281
0
0
BLOCK_RECORD
5
69
330
1
100
AcDbSymbolTableRecord
100
AcDbBlockTableRecord
2
left_plate
70
0
280
1
281
0
0
BLOCK_RECORD
5
6C
330
1
100
AcDbSymbolTableRecord
100
AcDbBlockTableRecord
2
top_plate
70
0
280
1
281
0
0
BLOCK_RECORD
5
6F
330
1
100
AcDbSymbolTableRecord
100
AcDbBlockTableRecord
2
right_plate
70
0
280
1
281
0
0
BLOCK_RECORD
5
72
330
1
100
AcDbSymbolTableRecord
100
AcDbBlockTableRecord
2
back_plate
70
0
280
1
281
0
0
BLOCK_RECORD
5
75
330
1
100
AcDbSymbolTableRecord
100
AcDbBlockTableRecord
2
mounted_foot_stand
70
0
280
1
281
0
0
ENDTAB
0
ENDSEC
0
SECTION
2
BLOCKS
0
BLOCK
5
20
330
1F
100
AcDbEntity
8
0
100
AcDbBlockBegin
2
*Model_Space
70
0
10
0
20
0
30
0
3
*Model_Space
1

0
ENDBLK
5
21
330
1F
100
AcDbEntity
8
0
100
AcDbBlockEnd
0
BLOCK
5
1C
330
1B
100
AcDbEntity
8
0
100
AcDbBlockBegin
2
*Paper_Space
70
0
10
0
20
0
30
0
3
*Paper_Space
1

0
ENDBLK
5
1D
330
1F
100
AcDbEntity
8
0
100
AcDbBlockEnd
0
BLOCK
5
49
330
48
100
AcDbEntity
8
0
100
AcDbBlockBegin
2
*D3
70
1
10
0
20
0
3
*D3
1

0
LINE
5
78
100
AcDbEntity
8
dimensions
6
CONTINUOUS
62
7
370
0
100
AcDbLine
10
299.375
20
450
11
268.75
21
450
0
LINE
5
79
100
AcDbEntity
8
dimensions
6
CONTINUOUS
62
7
370
0
100
AcDbLine
10
299.375
20
200
11
268.75
21
200
0
LINE
5
7A
100
AcDbEntity
8
dimensions
6
CONTINUOUS
62
7
370
0
100
AcDbLine
10
270
20
450
11
270
21
200
0
SOLID
5
7B
100
AcDbEntity
8
dimensions
6
CONTINUOUS
62
7
370
0
100
AcDbTrace
10
270
20
450
30
0
11
271.665138631
21
440
31
0
12
268.334861369
22
440
32
0
13
268.334861369
23
440
33
0
0
SOLID
5
7C
100
AcDbEntity
8
dimensions
6
CONTINUOUS
62
7
370
0
100
AcDbTrace
10
270
20
200
30
0
11
268.334861369
21
210
31
0
12
271.665138631
22
210
32
0
13
271.665138631
23
210
33
0
0
MTEXT
5
7D
100
AcDbEntity
8
dimensions
6
CONTINUOUS
62
7
370
0
100
AcDbMText
10
264.375
20
325
30
0
40
10
41
20
71
5
72
1
1
250
7
standard
210
0
220
0
230
1
50
90
73
2
44
1
0
ENDBLK
5
4A
330
48
100
AcDbEntity
8
0
100
AcDbBlockEnd
0
BLOCK
5
4C
330
4B
100
AcDbEntity
8
0
100
AcDbBlockBegin
2
*D10
70
1
10
0
20
0
3
*D10
1

0
LINE
5
7E
100
AcDbEntity
8
finished_piece
6
CONTINUOUS
62
7
370
0
100
AcDbLine
10
49.375
20
830
11
28.75
21
830
0
LINE
5
7F
100
AcDbEntity
8
finished_piece
6
CONTINUOUS
62
7
370
0
100
AcDbLine
10
49.375
20
730
11
28.75
21
730
0
LINE
5
80
100
AcDbEntity
8
finished_piece
6
CONTINUOUS
62
7
370
0
100
AcDbLine
10
30
20
830
11
30
21
730
0
SOLID
5
81
100
AcDbEntity
8
finished_piece
6
CONTINUOUS
62
7
370
0
100
AcDbTrace
10
30
20
830
30
0
11
31.6651386311
21
820
31
0
12
28.3348613689
22
820
32
0
13
28.3348613689
23
820
33
0
0
SOLID
5
82
100
AcDbEntity
8
finished_piece
6
CONTINUOUS
62
7
370
0
100
AcDbTrace
10
30
20
730
30
0
11
28.3348613689
21
740
31
0
12
31.6651386311
22
740
32
0
13
31.6651386311
23
740
33
0
0
MTEXT
5
83
100
AcDbEntity
8
finished_piece
6
CONTINUOUS
62
7
370
0
100
AcDbMText
10
24.375
20
780
30
0
40
10
41
17.7777777778
71
5
72
1
1
100
7
standard
210
0
220
0
230
1
50
90
73
2
44
1
0
ENDBLK
5
4D
330
4B
100
AcDbEntity
8
0
100
AcDbBlockEnd
0
BLOCK
5
4F
330
4E
100
AcDbEntity
8
0
100
AcDbBlockBegin
2
*D4
70
1
10
0
20
0
3
*D4
1

0
LINE
5
84
100
AcDbEntity
8
dimensions
6
CONTINUOUS
62
7
370
0
100
AcDbLine
10
-0.625
20
140
11
-21.25
21
140
0
LINE
5
85
100
AcDbEntity
8
dimensions
6
CONTINUOUS
62
7
370
0
100
AcDbLine
10
-0.625
20
7.65404249467e-17
11
-21.25
21
2.60237444819e-15
0
LINE
5
86
100
AcDbEntity
8
dimensions
6
CONTINUOUS
62
7
370
0
100
AcDbLine
10
-20
20
140
11
-20
21
2.44929359829e-15
0
SOLID
5
87
100
AcDbEntity
8
dimensions
6
CONTINUOUS
62
7
370
0
100
AcDbTrace
10
-20
20
140
30
0
11
-18.3348613689
21
130
31
0
12
-21.6651386311
22
130
32
0
13
-21.6651386311
23
130
33
0
0
SOLID
5
88
100
AcDbEntity
8
dimensions
6
CONTINUOUS
62
7
370
0
100
AcDbTrace
10
-20
20
2.44929359829e-15
30
0
11
-21.6651386311
21
10
31
0
12
-18.3348613689
22
10
32
0
13
-18.3348613689
23
10
33
0
0
MTEXT
5
89
100
AcDbEntity
8
dimensions
6
CONTINUOUS
62
7
370
0
100
AcDbMText
10
-25.625
20
70
30
0
40
10
41
18.8888888889
71
5
72
1
1
140
7
standard
210
0
220
0
230
1
50
90
73
2
44
1
0
ENDBLK
5
50
330
4E
100
AcDbEntity
8
0
100
AcDbBlockEnd
0
BLOCK
5
52
330
51
100
AcDbEntity
8
0
100
AcDbBlockBegin
2
*D5
70
1
10
0
20
0
3
*D5
1

0
LINE
5
8A
100
AcDbEntity
8
dimensions
6
CONTINUOUS
62
7
370
0
100
AcDbLine
10
-1.1481063742e-16
20
-0.625
11
-5.740531871e-15
21
-31.25
0
LINE
5
8B
100
AcDbEntity
8
dimensions
6
CONTINUOUS
62
7
370
0
100
AcDbLine
10
250
20
-0.625
11
250
21
-31.25
0
LINE
5
8C
100
AcDbEntity
8
dimensions
6
CONTINUOUS
62
7
370
0
100
AcDbLine
10
-5.51091059616e-15
20
-30
11
250
21
-30
0
SOLID
5
8D
100
AcDbEntity
8
dimensions
6
CONTINUOUS
62
7
370
0
100
AcDbTrace
10
-5.51091059616e-15
20
-30
30
0
11
10
21
-28.3348613689
31
0
12
10
22
-31.6651386311
32
0
13
10
23
-31.6651386311
33
0
0
SOLID
5
8E
100
AcDbEntity
8
dimensions
6
CONTINUOUS
62
7
370
0
100
AcDbTrace
10
250
20
-30
30
0
11
240
21
-31.6651386311
31
0
12
240
22
-28.3348613689
32
0
13
240
23
-28.3348613689
33
0
0
MTEXT
5
8F
100
AcDbEntity
8
dimensions
6
CONTINUOUS
62
7
370
0
100
AcDbMText
10
125
20
-24.375
30
0
40
10
41
20
71
5
72
1
1
250
7
standard
210
0
220
0
230
1
50
0
73
2
44
1
0
ENDBLK
5
53
330
51
100
AcDbEntity
8
0
100
AcDbBlockEnd
0
BLOCK
5
55
330
54
100
AcDbEntity
8
0
100
AcDbBlockBegin
2
*D9
70
1
10
0
20
0
3
*D9
1

0
LINE
5
90
100
AcDbEntity
8
finished_piece
6
CONTINUOUS
62
7
370
0
100
AcDbLine
10
667.131350946
20
995
11
691.25
21
995
0
LINE
5
91
100
AcDbEntity
8
finished_piece
6
CONTINUOUS
62
7
370
0
100
AcDbLine
10
667.131350946
20
855
11
691.25
21
855
0
LINE
5
92
100
AcDbEntity
8
finished_piece
6
CONTINUOUS
62
7
370
0
100
AcDbLine
10
690
20
995
11
690
21
855
0
SOLID
5
93
100
AcDbEntity
8
finished_piece
6
CONTINUOUS
62
7
370
0
100
AcDbTrace
10
690
20
995
30
0
11
691.665138631
21
985
31
0
12
688.334861369
22
985
32
0
13
688.334861369
23
985
33
0
0
SOLID
5
94
100
AcDbEntity
8
finished_piece
6
CONTINUOUS
62
7
370
0
100
AcDbTrace
10
690
20
855
30
0
11
688.334861369
21
865
31
0
12
691.665138631
22
865
32
0
13
691.665138631
23
865
33
0
0
MTEXT
5
95
100
AcDbEntity
8
finished_piece
6
CONTINUOUS
62
7
370
0
100
AcDbMText
10
684.375
20
925
30
0
40
10
41
18.8888888889
71
5
72
1
1
140
7
standard
210
0
220
0
230
1
50
90
73
2
44
1
0
ENDBLK
5
56
330
54
100
AcDbEntity
8
0
100
AcDbBlockEnd
0
BLOCK
5
58
330
57
100
AcDbEntity
8
0
100
AcDbBlockBegin
2
*D2
70
1
10
0
20
0
3
*D2
1

0
LINE
5
96
100
AcDbEntity
8
dimensions
6
CONTINUOUS
62
7
370
0
100
AcDbLine
10
299.375
20
640
11
268.75
21
640
0
LINE
5
97
100
AcDbEntity
8
dimensions
6
CONTINUOUS
62
7
370
0
100
AcDbLine
10
299.375
20
500
11
268.75
21
500
0
LINE
5
98
100
AcDbEntity
8
dimensions
6
CONTINUOUS
62
7
370
0
100
AcDbLine
10
270
20
640
11
270
21
500
0
SOLID
5
99
100
AcDbEntity
8
dimensions
6
CONTINUOUS
62
7
370
0
100
AcDbTrace
10
270
20
640
30
0
11
271.665138631
21
630
31
0
12
268.334861369
22
630
32
0
13
268.334861369
23
630
33
0
0
SOLID
5
9A
100
AcDbEntity
8
dimensions
6
CONTINUOUS
62
7
370
0
100
AcDbTrace
10
270
20
500
30
0
11
268.334861369
21
510
31
0
12
271.665138631
22
510
32
0
13
271.665138631
23
510
33
0
0
MTEXT
5
9B
100
AcDbEntity
8
dimensions
6
CONTINUOUS
62
7
370
0
100
AcDbMText
10
264.375
20
570
30
0
40
10
41
18.8888888889
71
5
72
1
1
140
7
standard
210
0
220
0
230
1
50
90
73
2
44
1
0
ENDBLK
5
59
330
57
100
AcDbEntity
8
0
100
AcDbBlockEnd
0
BLOCK
5
5B
330
5A
100
AcDbEntity
8
0
100
AcDbBlockBegin
2
*D7
70
1
10
0
20
0
3
*D7
1

0
LINE
5
9C
100
AcDbEntity
8
finished_piece
6
CONTINUOUS
62
7
370
0
100
AcDbLine
10
50
20
729.375
11
50
21
708.75
0
LINE
5
9D
100
AcDbEntity
8
finished_piece
6
CONTINUOUS
62
7
370
0
100
AcDbLine
10
450
20
729.375
11
450
21
708.75
0
LINE
5
9E
100
AcDbEntity
8
finished_piece
6
CONTINUOUS
62
7
370
0
100
AcDbLine
10
50
20
710
11
450
21
710
0
SOLID
5
9F
100
AcDbEntity
8
finished_piece
6
CONTINUOUS
62
7
370
0
100
AcDbTrace
10
50
20
710
30
0
11
60
21
711.665138631
31
0
12
60
22
708.334861369
32
0
13
60
23
708.334861369
33
0
0
SOLID
5
A0
100
AcDbEntity
8
finished_piece
6
CONTINUOUS
62
7
370
0
100
AcDbTrace
10
450
20
710
30
0
11
440
21
708.334861369
31
0
12
440
22
711.665138631
32
0
13
440
23
711.665138631
33
0
0
MTEXT
5
A1
100
AcDbEntity
8
finished_piece
6
CONTINUOUS
62
7
370
0
100
AcDbMText
10
250
20
715.625
30
0
40
10
41
21.1111111111
71
5
72
1
1
400
7
standard
210
0
220
0
230
1
50
0
73
2
44
1
0
ENDBLK
5
5C
330
5A
100
AcDbEntity
8
0
100
AcDbBlockEnd
0
BLOCK
5
5E
330
5D
100
AcDbEntity
8
0
100
AcDbBlockBegin
2
*D1
70
1
10
0
20
0
3
*D1
1

0
LINE
5
A2
100
AcDbEntity
8
dimensions
6
CONTINUOUS
62
7
370
0
100
AcDbLine
10
300
20
640.625
11
300
21
671.25
0
LINE
5
A3
100
AcDbEntity
8
dimensions
6
CONTINUOUS
62
7
370
0
100
AcDbLine
10
700
20
640.625
11
700
21
671.25
0
LINE
5
A4
100
AcDbEntity
8
dimensions
6
CONTINUOUS
62
7
370
0
100
AcDbLine
10
300
20
670
11
700
21
670
0
SOLID
5
A5
100
AcDbEntity
8
dimensions
6
CONTINUOUS
62
7
370
0
100
AcDbTrace
10
300
20
670
30
0
11
310
21
671.665138631
31
0
12
310
22
668.334861369
32
0
13
310
23
668.334861369
33
0
0
SOLID
5
A6
100
AcDbEntity
8
dimensions
6
CONTINUOUS
62
7
370
0
100
AcDbTrace
10
700
20
670
30
0
11
690
21
668.334861369
31
0
12
690
22
671.665138631
32
0
13
690
23
671.665138631
33
0
0
MTEXT
5
A7
100
AcDbEntity
8
dimensions
6
CONTINUOUS
62
7
370
0
100
AcDbMText
10
500
20
675.625
30
0
40
10
41
21.1111111111
71
5
72
1
1
400
7
standard
210
0
220
0
230
1
50
0
73
2
44
1
0
ENDBLK
5
5F
330
5D
100
AcDbEntity
8
0
100
AcDbBlockEnd
0
BLOCK
5
61
330
60
100
AcDbEntity
8
0
100
AcDbBlockBegin
2
*D8
70
1
10
0
20
0
3
*D8
1

0
LINE
5
A8
100
AcDbEntity
8
finished_piece
6
CONTINUOUS
62
7
370
0
100
AcDbLine
10
450.3125
20
729.458734123
11
460.493602792
21
711.82454681
0
LINE
5
A9
100
AcDbEntity
8
finished_piece
6
CONTINUOUS
62
7
370
0
100
AcDbLine
10
666.818850946
20
854.458734123
11
676.999953738
21
836.82454681
0
LINE
5
AA
100
AcDbEntity
8
finished_piece
6
CONTINUOUS
62
7
370
0
100
AcDbLine
10
459.868602792
20
712.907078565
11
676.374953738
21
837.907078565
0
SOLID
5
AB
100
AcDbEntity
8
finished_piece
6
CONTINUOUS
62
7
370
0
100
AcDbTrace
10
459.868602792
20
712.907078565
30
0
11
467.696287514
21
719.34913092
31
0
12
469.361426145
22
716.465026209
32
0
13
469.361426145
23
716.465026209
33
0
0
SOLID
5
AC
100
AcDbEntity
8
finished_piece
6
CONTINUOUS
62
7
370
0
100
AcDbTrace
10
676.374953738
20
837.907078565
30
0
11
668.547269016
21
831.465026209
31
0
12
666.882130385
22
834.34913092
32
0
13
666.882130385
23
834.34913092
33
0
0
MTEXT
5
AD
100
AcDbEntity
8
finished_piece
6
CONTINUOUS
62
7
370
0
100
AcDbMText
10
565.309278265
20
780.278471461
30
0
40
10
41
20
71
5
72
1
1
250
7
standard
210
0
220
0
230
1
50
30
73
2
44
1
0
ENDBLK
5
62
330
60
100
AcDbEntity
8
0
100
AcDbBlockEnd
0
BLOCK
5
64
330
63
100
AcDbEntity
8
0
100
AcDbBlockBegin
2
*D6
70
1
10
0
20
0
3
*D6
1

0
LINE
5
AE
100
AcDbEntity
8
dimensions
6
CONTINUOUS
62
7
370
0
100
AcDbLine
10
299.375
20
100
11
278.75
21
100
0
LINE
5
AF
100
AcDbEntity
8
dimensions
6
CONTINUOUS
62
7
370
0
100
AcDbLine
10
299.375
20
7.65404249467e-17
11
278.75
21
2.60237444819e-15
0
LINE
5
B0
100
AcDbEntity
8
dimensions
6
CONTINUOUS
62
7
370
0
100
AcDbLine
10
280
20
100
11
280
21
2.44929359829e-15
0
SOLID
5
B1
100
AcDbEntity
8
dimensions
6
CONTINUOUS
62
7
370
0
100
AcDbTrace
10
280
20
100
30
0
11
281.665138631
21
90
31
0
12
278.334861369
22
90
32
0
13
278.334861369
23
90
33
0
0
SOLID
5
B2
100
AcDbEntity
8
dimensions
6
CONTINUOUS
62
7
370
0
100
AcDbTrace
10
280
20
2.44929359829e-15
30
0
11
278.334861369
21
10
31
0
12
281.665138631
22
10
32
0
13
281.665138631
23
10
33
0
0
MTEXT
5
B3
100
AcDbEntity
8
dimensions
6
CONTINUOUS
62
7
370
0
100
AcDbMText
10
274.375
20
50
30
0
40
10
41
17.7777777778
71
5
72
1
1
100
7
standard
210
0
220
0
230
1
50
90
73
2
44
1
0
ENDBLK
5
65
330
63
100
AcDbEntity
8
0
100
AcDbBlockEnd
0
BLOCK
5
67
330
66
100
AcDbEntity
8
0
100
AcDbBlockBegin
2
front_plate
70
0
10
0
20
0
3
front_plate
1

0
LINE
5
B4
100
AcDbEntity
8
0
6
ByLayer
62
256
370
-1
100
AcDbLine
10
0
20
0
11
400
21
0
0
LINE
5
B5
100
AcDbEntity
8
0
6
ByLayer
62
256
370
-1
100
AcDbLine
10
400
20
0
11
400
21
100
0
LINE
5
B6
100
AcDbEntity
8
0
6
ByLayer
62
256
370
-1
100
AcDbLine
10
400
20
100
11
0
21
100
0
LINE
5
B7
100
AcDbEntity
8
0
6
ByLayer
62
256
370
-1
100
AcDbLine
10
0
20
100
11
0
21
0
0
ENDBLK
5
68
330
66
100
AcDbEntity
8
0
100
AcDbBlockEnd
0
BLOCK
5
6A
330
69
100
AcDbEntity
8
0
100
AcDbBlockBegin
2
left_plate
70
0
10
0
20
0
3
left_plate
1

0
LINE
5
B8
100
AcDbEntity
8
0
6
ByLayer
62
256
370
-1
100
AcDbLine
10
0
20
0
11
0
21
140
0
LINE
5
B9
100
AcDbEntity
8
0
6
ByLayer
62
256
370
-1
100
AcDbLine
10
0
20
140
11
250
21
100
0
LINE
5
BA
100
AcDbEntity
8
0
6
ByLayer
62
256
370
-1
100
AcDbLine
10
250
20
100
11
250
21
0
0
LINE
5
BB
100
AcDbEntity
8
0
6
ByLayer
62
256
370
-1
100
AcDbLine
10
250
20
0
11
0
21
0
0
ENDBLK
5
6B
330
69
100
AcDbEntity
8
0
100
AcDbBlockEnd
0
BLOCK
5
6D
330
6C
100
AcDbEntity
8
0
100
AcDbBlockBegin
2
top_plate
70
0
10
0
20
0
3
top_plate
1

0
LINE
5
BC
100
AcDbEntity
8
0
6
ByLayer
62
256
370
-1
100
AcDbLine
10
0
20
0
11
0
21
250
0
LINE
5
BD
100
AcDbEntity
8
0
6
ByLayer
62
256
370
-1
100
AcDbLine
10
0
20
250
11
400
21
250
0
LINE
5
BE
100
AcDbEntity
8
0
6
ByLayer
62
256
370
-1
100
AcDbLine
10
400
20
250
11
400
21
0
0
LINE
5
BF
100
AcDbEntity
8
0
6
ByLayer
62
256
370
-1
100
AcDbLine
10
400
20
0
11
0
21
0
0
ENDBLK
5
6E
330
6C
100
AcDbEntity
8
0
100
AcDbBlockEnd
0
BLOCK
5
70
330
6F
100
AcDbEntity
8
0
100
AcDbBlockBegin
2
right_plate
70
0
10
0
20
0
3
right_plate
1

0
LINE
5
C0
100
AcDbEntity
8
0
6
ByLayer
62
256
370
-1
100
AcDbLine
10
0
20
0
11
250
21
0
0
LINE
5
C1
100
AcDbEntity
8
0
6
ByLayer
62
256
370
-1
100
AcDbLine
10
250
20
0
11
250
21
140
0
LINE
5
C2
100
AcDbEntity
8
0
6
ByLayer
62
256
370
-1
100
AcDbLine
10
250
20
140
11
0
21
100
0
LINE
5
C3
100
AcDbEntity
8
0
6
ByLayer
62
256
370
-1
100
AcDbLine
10
0
20
100
11
0
21
0
0
ENDBLK
5
71
330
6F
100
AcDbEntity
8
0
100
AcDbBlockEnd
0
BLOCK
5
73
330
72
100
AcDbEntity
8
0
100
AcDbBlockBegin
2
back_plate
70
0
10
0
20
0
3
back_plate
1

0
LINE
5
C4
100
AcDbEntity
8
0
6
ByLayer
62
256
370
-1
100
AcDbLine
10
0
20
0
11
0
21
140
0
LINE
5
C5
100
AcDbEntity
8
0
6
ByLayer
62
256
370
-1
100
AcDbLine
10
0
20
140
11
400
21
140
0
LINE
5
C6
100
AcDbEntity
8
0
6
ByLayer
62
256
370
-1
100
AcDbLine
10
400
20
140
11
400
21
0
0
LINE
5
C7
100
AcDbEntity
8
0
6
ByLayer
62
256
370
-1
100
AcDbLine
10
400
20
0
11
0
21
0
0
ENDBLK
5
74
330
72
100
AcDbEntity
8
0
100
AcDbBlockEnd
0
BLOCK
5
76
330
75
100
AcDbEntity
8
0
100
AcDbBlockBegin
2
mounted_foot_stand
70
0
10
0
20
0
3
mounted_foot_stand
1

0
LINE
5
C8
100
AcDbEntity
8
finished_piece
6
ByLayer
62
256
370
-1
100
AcDbLine
10
0
20
0
11
0
21
100
0
LINE
5
C9
100
AcDbEntity
8
finished_piece
6
ByLayer
62
256
370
-1
100
AcDbLine
10
216.506350946
20
265
11
0
21
100
0
LINE
5
CA
100
AcDbEntity
8
finished_piece
6
ByLayer
62
256
370
-1
100
AcDbLine
10
0
20
0
11
400
21
0
0
LINE
5
CB
100
AcDbEntity
8
finished_piece
6
ByLayer
62
256
370
-1
100
AcDbLine
10
400
20
0
11
400
21
100
0
LINE
5
CC
100
AcDbEntity
8
finished_piece
6
ByLayer
62
256
370
-1
100
AcDbLine
10
400
20
0
11
616.506350946
21
125
0
LINE
5
CD
100
AcDbEntity
8
finished_piece
6
ByLayer
62
256
370
-1
100
AcDbLine
10
616.506350946
20
125
11
616.506350946
21
265
0
LINE
5
CE
100
AcDbEntity
8
finished_piece
6
ByLayer
62
256
370
-1
100
AcDbLine
10
616.506350946
20
265
11
400
21
100
0
LINE
5
CF
100
AcDbEntity
8
finished_piece
6
ByLayer
62
256
370
-1
100
AcDbLine
10
216.506350946
20
265
11
616.506350946
21
265
0
LINE
5
D0
100
AcDbEntity
8
finished_piece
6
ByLayer
62
256
370
-1
100
AcDbLine
10
0
20
100
11
400
21
100
0
ENDBLK
5
77
330
75
100
AcDbEntity
8
0
100
AcDbBlockEnd
0
ENDSEC
0
SECTION
2
ENTITIES
0
INSERT
5
D1
100
AcDbEntity
8
0
6
ByLayer
62
256
370
-1
100
AcDbBlockReference
2
front_plate
10
300
20
0
30
0
41
1
42
1
43
0
50
0
70
1
71
1
44
0
45
0
0
INSERT
5
D2
100
AcDbEntity
8
0
6
ByLayer
62
256
370
-1
100
AcDbBlockReference
2
left_plate
10
0
20
0
30
0
41
1
42
1
43
0
50
0
70
1
71
1
44
0
45
0
0
INSERT
5
D3
100
AcDbEntity
8
0
6
ByLayer
62
256
370
-1
100
AcDbBlockReference
2
top_plate
10
300
20
200
30
0
41
1
42
1
43
0
50
0
70
1
71
1
44
0
45
0
0
INSERT
5
D4
100
AcDbEntity
8
0
6
ByLayer
62
256
370
-1
100
AcDbBlockReference
2
right_plate
10
750
20
0
30
0
41
1
42
1
43
0
50
0
70
1
71
1
44
0
45
0
0
INSERT
5
D5
100
AcDbEntity
8
0
6
ByLayer
62
256
370
-1
100
AcDbBlockReference
2
back_plate
10
300
20
500
30
0
41
1
42
1
43
0
50
0
70
1
71
1
44
0
45
0
0
DIMENSION
5
D6
100
AcDbEntity
8
dimensions
6
ByLayer
62
256
370
-1
100
AcDbDimension
2
*D1
10
700
20
670
30
0
11
500
21
675.625
31
0
70
33
71
5
72
0
3
Standard
53
0
210
0
220
0
230
1
100
AcDbAlignedDimension
13
300
23
640
33
0
14
700
24
640
34
0
0
DIMENSION
5
D7
100
AcDbEntity
8
dimensions
6
ByLayer
62
256
370
-1
100
AcDbDimension
2
*D2
10
270
20
500
30
0
11
264.375
21
570
31
0
70
33
71
5
3
Standard
53
0
210
0
220
0
230
1
100
AcDbAlignedDimension
13
300
23
640
33
0
14
300
24
500
34
0
0
DIMENSION
5
D8
100
AcDbEntity
8
dimensions
6
ByLayer
62
256
370
-1
100
AcDbDimension
2
*D3
10
270
20
200
30
0
11
264.375
21
325
31
0
70
33
71
5
3
Standard
53
0
210
0
220
0
230
1
100
AcDbAlignedDimension
13
300
23
450
33
0
14
300
24
200
34
0
0
DIMENSION
5
D9
100
AcDbEntity
8
dimensions
6
ByLayer
62
256
370
-1
100
AcDbDimension
2
*D4
10
-20
20
4.89858719659e-15
30
0
11
-25.625
21
70
31
0
70
33
71
5
3
Standard
53
0
210
0
220
0
230
1
100
AcDbAlignedDimension
13
0
23
140
33
0
14
0
24
0
34
0
0
DIMENSION
5
DA
100
AcDbEntity
8
dimensions
6
ByLayer
62
256
370
-1
100
AcDbDimension
2
*D5
10
250
20
-30
30
0
11
125
21
-24.375
31
0
70
33
71
5
3
Standard
53
0
210
0
220
0
230
1
100
AcDbAlignedDimension
13
0
23
0
33
0
14
250
24
0
34
0
0
DIMENSION
5
DB
100
AcDbEntity
8
dimensions
6
ByLayer
62
256
370
-1
100
AcDbDimension
2
*D6
10
280
20
4.89858719659e-15
30
0
11
274.375
21
50
31
0
70
33
71
5
3
Standard
53
0
210
0
220
0
230
1
100
AcDbAlignedDimension
13
300
23
100
33
0
14
300
24
0
34
0
0
DIMENSION
5
DC
100
AcDbEntity
8
finished_piece
6
ByLayer
62
256
370
-1
100
AcDbDimension
2
*D7
10
450
20
710
30
0
11
250
21
715.625
31
0
70
33
71
5
3
Standard
53
0
210
0
220
0
230
1
100
AcDbAlignedDimension
13
50
23
730
33
0
14
450
24
730
34
0
0
DIMENSION
5
DD
100
AcDbEntity
8
finished_piece
6
ByLayer
62
256
370
-1
100
AcDbDimension
2
*D8
10
676.374953738
20
837.907078565
30
0
11
565.309278265
21
780.278471461
31
0
70
33
71
5
3
Standard
53
0
210
0
220
0
230
1
100
AcDbAlignedDimension
13
450
23
730
33
0
14
666.506350946
24
855
34
0
0
DIMENSION
5
DE
100
AcDbEntity
8
finished_piece
6
ByLayer
62
256
370
-1
100
AcDbDimension
2
*D9
10
690
20
855
30
0
11
684.375
21
925
31
0
70
33
71
5
3
Standard
53
0
210
0
220
0
230
1
100
AcDbAlignedDimension
13
666.506350946
23
995
33
0
14
666.506350946
24
855
34
0
0
DIMENSION
5
DF
100
AcDbEntity
8
finished_piece
6
ByLayer
62
256
370
-1
100
AcDbDimension
2
*D10
10
30
20
730
30
0
11
24.375
21
780
31
0
70
33
71
5
3
Standard
53
0
210
0
220
0
230
1
100
AcDbAlignedDimension
13
50
23
830
33
0
14
50
24
730
34
0
0
INSERT
5
E0
100
AcDbEntity
8
finished_piece
6
ByLayer
62
0
370
-1
100
AcDbBlockReference
2
mounted_foot_stand
10
50
20
730
30
0
41
1
42
1
43
0
50
0
70
1
71
1
44
0
45
0
0
MTEXT
5
E1
100
AcDbEntity
8
finished_piece
6
ByLayer
62
256
370
-1
100
AcDbMText
10
700
20
800
30
0
40
10
41
230.277792095
71
1
72
1
1
Measurements in millimeters (mm).
7

210
0
220
0
230
1
50
0
73
2
44
1
0
ENDSEC
0
SECTION
2
OBJECTS
0
DICTIONARY
5
C
330
0
100
AcDbDictionary
281
1
3
ACAD_GROUP
350
D
0
DICTIONARY
5
D
330
C
100
AcDbDictionary
281
1
0
ENDSEC
0
EOF
